<?xml version="1.0" standalone="no"?>
<!DOCTYPE svg PUBLIC "-//W3C//DTD SVG 20010904//EN"
 "http://www.w3.org/TR/2001/REC-SVG-20010904/DTD/svg10.dtd">
<svg version="1.0" xmlns="http://www.w3.org/2000/svg"
 width="2560.000000pt" height="2560.000000pt" viewBox="0 0 2560.000000 2560.000000"
 preserveAspectRatio="xMidYMid meet">
<metadata>
Created by potrace 1.11, written by Peter Selinger 2001-2013
</metadata>
<g transform="translate(0.000000,2560.000000) scale(0.100000,-0.100000)"
fill="#000000" stroke="none">
<path d="M10465 24526 c-1369 -451 -2573 -1276 -3525 -2416 -715 -856 -1257
-1899 -1558 -3000 -246 -900 -339 -1883 -264 -2813 l8 -87 -111 -53 c-251
-121 -590 -317 -870 -502 -727 -482 -1382 -1101 -1915 -1810 -804 -1069 -1339
-2364 -1529 -3700 -62 -433 -81 -715 -81 -1180 0 -446 20 -736 76 -1132 35
-251 131 -750 141 -739 3 2 -3 85 -13 183 -22 221 -25 784 -6 1003 70 788 266
1489 608 2171 459 919 1148 1689 1996 2231 698 446 1465 726 2268 827 151 19
489 46 495 39 1 -1 -12 -77 -31 -168 -87 -430 -124 -805 -133 -1325 l-6 -389
-375 -91 c-290 -70 -374 -94 -373 -105 2 -8 124 -553 273 -1210 149 -657 274
-1207 277 -1222 3 -16 12 -28 19 -28 7 0 172 38 366 85 193 47 357 85 362 85
6 0 31 -46 55 -103 279 -647 703 -1308 1187 -1854 57 -65 104 -121 104 -125 0
-4 -100 -150 -223 -325 -123 -175 -226 -324 -230 -330 -5 -7 350 -277 982
-747 545 -405 996 -739 1004 -742 10 -4 81 89 231 305 120 171 225 320 235
332 l17 21 71 -36 c269 -135 747 -311 1103 -406 85 -23 163 -44 172 -48 14 -6
5 -28 -62 -149 -280 -504 -600 -926 -1001 -1318 -716 -701 -1583 -1187 -2541
-1425 -845 -210 -1735 -210 -2586 0 -708 175 -1360 481 -1967 924 l-120 87
124 -121 c551 -538 1306 -1051 2051 -1393 805 -370 1598 -583 2505 -673 218
-21 867 -30 1106 -15 1399 90 2720 552 3867 1353 l144 100 31 -23 c86 -64 310
-215 428 -289 1026 -641 2136 -1019 3334 -1136 224 -22 893 -30 1134 -15 1621
106 3148 716 4393 1754 205 170 521 462 468 432 -8 -5 -64 -46 -125 -90 -346
-257 -810 -515 -1210 -674 -1320 -526 -2779 -521 -4080 16 -176 72 -511 238
-675 333 -658 383 -1254 918 -1703 1531 l-56 77 45 7 46 7 -6 41 c-12 91 -78
749 -74 751 1 2 68 25 148 51 691 227 1348 566 1909 985 69 51 130 93 137 94
6 1 117 -98 245 -219 129 -122 255 -240 281 -263 l46 -43 831 935 c457 514
831 937 831 940 0 3 -546 524 -558 531 -1 1 28 53 64 116 386 662 656 1362
819 2116 18 85 35 156 37 158 1 2 170 0 373 -4 204 -4 373 -5 377 -2 7 7 52
2530 45 2537 -3 3 -177 8 -388 12 l-383 7 -27 145 c-16 80 -31 162 -35 183
l-7 37 45 0 c78 0 357 -29 518 -55 1466 -228 2786 -1050 3662 -2280 722 -1013
1106 -2276 1074 -3530 -3 -132 -13 -314 -21 -403 -9 -90 -14 -169 -12 -175 9
-27 102 452 141 729 64 450 80 714 73 1261 -5 442 -13 569 -57 918 -128 1015
-466 2049 -961 2935 -474 849 -1091 1595 -1834 2216 -447 373 -982 723 -1503
981 l-133 66 5 36 c8 52 24 347 31 561 13 412 -31 1037 -106 1485 -246 1484
-871 2826 -1845 3960 -153 178 -488 521 -666 682 -801 724 -1721 1264 -2722
1598 -192 64 -264 80 -154 34 91 -38 427 -212 548 -284 944 -560 1690 -1366
2188 -2365 354 -708 546 -1424 603 -2245 15 -215 6 -744 -16 -950 -42 -404
-129 -837 -227 -1142 l-23 -72 -220 264 -219 265 -31 -29 c-16 -15 -150 -135
-298 -265 l-267 -237 -128 99 c-586 455 -1232 805 -1939 1052 -106 37 -123 46
-123 64 1 11 22 191 49 399 26 207 46 377 44 377 -2 0 -543 72 -1203 160 -660
88 -1210 160 -1222 160 -23 0 -24 -3 -72 -392 -26 -216 -50 -400 -52 -408 -3
-13 -36 -18 -166 -29 -692 -54 -1436 -247 -2112 -546 -69 -30 -129 -55 -134
-55 -4 0 -102 142 -218 315 -115 173 -211 314 -214 314 -5 0 -2016 -1432
-2027 -1443 -3 -2 93 -149 212 -326 119 -176 215 -325 213 -330 -5 -15 -139
-160 -147 -160 -5 0 -30 46 -56 103 -217 467 -387 1048 -464 1582 -46 316 -55
454 -55 855 -1 401 8 538 55 860 253 1753 1298 3302 2809 4165 109 62 401 209
520 263 59 26 -17 7 -165 -42z m2483 -6203 l42 -5 -1 -62 c-2 -158 -25 -471
-34 -471 -190 7 -375 19 -382 24 -7 4 -6 88 3 241 7 129 13 248 13 264 l1 29
158 -7 c86 -4 176 -9 200 -13z m1957 -333 c220 -78 404 -146 409 -150 8 -8
-100 -350 -111 -350 -7 0 -875 310 -885 316 -4 3 20 82 52 177 33 94 60 172
60 174 0 1 17 -4 38 -11 20 -8 217 -78 437 -156z m-4132 -212 c53 -116 96
-212 95 -213 -2 -1 -112 -55 -245 -120 -134 -65 -243 -121 -243 -125 0 -4 38
-87 85 -184 47 -97 85 -181 85 -185 0 -6 -305 -151 -372 -176 -14 -6 -33 26
-107 179 -49 102 -92 186 -94 186 -3 0 -116 -48 -252 -106 -136 -58 -249 -103
-252 -100 -12 11 -193 410 -191 418 4 10 1365 637 1383 638 6 0 54 -95 108
-212z m2507 -814 c433 -40 901 -152 1306 -314 764 -305 1412 -782 1967 -1445
l76 -90 -52 -53 c-80 -82 -293 -265 -446 -382 -867 -667 -1922 -1063 -2993
-1126 l-118 -7 0 -207 0 -207 63 -12 c34 -7 108 -28 164 -46 491 -163 870
-591 982 -1110 56 -257 43 -549 -36 -798 -13 -43 -23 -80 -21 -82 10 -9 340
-205 346 -205 4 0 32 39 62 87 30 48 99 149 152 225 671 944 1582 1637 2672
2032 71 26 130 45 131 44 6 -7 66 -274 84 -378 61 -342 86 -668 78 -1035 -10
-466 -66 -847 -188 -1282 -354 -1262 -1191 -2347 -2307 -2987 -433 -249 -931
-438 -1404 -535 l-87 -18 -5 26 c-35 169 -56 808 -37 1101 52 775 236 1492
552 2149 44 90 78 165 77 166 -2 2 -81 49 -176 105 l-174 103 -90 -97 c-209
-224 -479 -376 -788 -442 -120 -26 -420 -26 -540 -1 -302 64 -537 193 -757
412 l-122 122 -168 -99 c-92 -55 -170 -102 -172 -104 -2 -2 31 -79 74 -171
401 -866 591 -1814 547 -2725 -12 -237 -37 -516 -47 -526 -11 -11 -330 74
-540 143 -724 240 -1346 625 -1895 1175 -644 643 -1088 1422 -1319 2314 -159
611 -201 1294 -120 1936 29 236 102 606 122 627 18 17 426 -152 692 -287 543
-275 976 -590 1416 -1029 299 -300 490 -533 721 -881 60 -91 114 -166 118
-168 5 -2 85 42 178 97 l169 101 -24 71 c-55 163 -67 249 -68 479 0 189 3 227
23 318 71 315 197 549 416 768 213 212 465 352 734 404 l62 13 0 207 0 207
-102 7 c-1129 73 -2190 486 -3072 1192 -160 128 -376 319 -376 332 0 5 39 55
86 113 683 831 1569 1399 2580 1652 519 131 1047 171 1594 121z m3534 -549
c223 -198 405 -364 405 -368 1 -7 -160 -206 -214 -265 -9 -10 -77 46 -326 267
-173 155 -317 281 -321 281 -4 0 -54 -54 -110 -119 l-102 -119 -46 38 c-25 21
-79 70 -120 108 -71 65 -74 71 -59 88 9 11 107 128 218 262 l203 242 34 -27
c18 -16 215 -190 438 -388z m-7989 -537 c39 -33 85 -74 103 -89 l32 -29 -137
-169 -138 -170 -48 52 c-26 29 -67 77 -92 108 l-44 57 122 151 c67 83 124 151
127 151 3 0 37 -28 75 -62z m250 -1630 c61 -32 129 -103 158 -166 31 -67 31
-207 0 -274 -29 -63 -96 -134 -158 -166 -43 -23 -62 -27 -140 -27 -79 0 -97 4
-142 28 -66 34 -116 84 -150 150 -25 47 -28 62 -28 152 0 95 2 103 34 163 39
72 97 124 168 153 70 28 190 22 258 -13z m7810 3 c62 -27 127 -91 161 -158 26
-51 29 -68 29 -148 0 -82 -3 -97 -33 -157 -58 -118 -157 -180 -287 -180 -126
0 -233 65 -290 178 -40 79 -46 194 -16 275 37 98 123 178 221 206 58 17 158 9
215 -16z m-6262 -658 c216 -63 376 -286 377 -524 0 -71 -32 -196 -67 -262 -39
-73 -155 -187 -224 -221 -210 -102 -443 -64 -605 98 -106 106 -159 238 -158
396 1 308 259 556 557 534 37 -3 91 -12 120 -21z m4747 6 c182 -42 350 -218
389 -407 57 -277 -90 -547 -348 -638 -52 -19 -87 -24 -166 -24 -117 0 -197 24
-289 85 -228 151 -304 470 -173 720 63 119 209 235 333 264 54 12 200 13 254
0z m-2418 -4199 c328 -101 477 -514 292 -812 -63 -103 -180 -193 -292 -228
-76 -24 -211 -27 -288 -6 -323 86 -486 464 -334 772 91 186 261 293 466 294
64 0 111 -6 156 -20z m-15 -1803 c66 -34 116 -83 150 -150 21 -41 27 -70 31
-137 5 -109 -18 -177 -86 -248 -67 -71 -119 -94 -218 -100 -73 -4 -88 -1 -142
23 -72 32 -143 103 -175 173 -16 36 -21 67 -22 132 0 73 4 94 28 145 62 132
170 198 312 191 51 -2 84 -10 122 -29z"/>
</g>
</svg>
