<?xml version="1.0" standalone="no"?>
<svg version="1.0" xmlns="http://www.w3.org/2000/svg" viewBox="0 0 1328 1372">
    <g transform="translate(0,1372) scale(0.1,-0.1)" fill="white" stroke="none">
        <path d="M9075 13713 c-432 -52 -786 -200 -1120 -470 -122 -98 -423 -403 -526
            -533 -309 -387 -441 -729 -518 -1335 -56 -444 -63 -566 -71 -1270 -6 -533 -11
            -686 -23 -747 -42 -216 -107 -308 -217 -308 -51 0 -109 29 -145 72 -74 87 -78
            138 -76 908 2 662 -3 786 -39 1070 -50 380 -111 666 -185 865 -89 240 -244
            503 -431 732 -111 135 -364 395 -464 476 -261 211 -539 337 -877 399 -169 30
            -466 30 -643 0 -429 -73 -820 -255 -1115 -519 -145 -130 -240 -250 -350 -443
            -159 -281 -322 -498 -530 -706 -170 -170 -332 -299 -545 -433 -63 -40 -150
            -101 -195 -136 -99 -77 -282 -265 -357 -365 -498 -665 -600 -1566 -247 -2185
            127 -223 269 -372 513 -537 611 -415 1244 -661 1941 -757 410 -57 728 -70
            1210 -50 670 28 873 17 948 -51 87 -78 -11 -235 -176 -285 -134 -40 -425 -38
            -1032 7 -260 20 -375 23 -865 23 -598 0 -700 -6 -982 -55 -569 -99 -1031 -326
            -1392 -684 -530 -525 -699 -1249 -464 -1985 135 -421 363 -740 686 -959 177
            -120 262 -190 408 -336 250 -251 452 -531 734 -1016 183 -316 288 -461 456
            -626 451 -446 992 -576 1581 -379 291 97 681 340 895 556 276 281 565 812 782
            1437 142 410 201 699 246 1207 47 533 60 600 154 801 30 63 53 98 76 114 96
            68 242 -24 241 -152 0 -24 -7 -126 -15 -228 -53 -633 -53 -1472 0 -2145 83
            -1062 302 -2004 605 -2607 35 -69 42 -78 66 -78 51 0 1168 40 1185 43 14 2 3
            24 -51 112 -632 1025 -1106 2448 -1226 3685 -47 486 -45 1084 4 1195 65 148
            269 231 330 134 14 -24 45 -210 101 -611 110 -795 311 -1506 557 -1968 381
            -717 1052 -1274 1703 -1411 139 -29 390 -32 525 -5 333 66 617 223 904 501
            195 190 324 354 501 645 311 510 631 909 1042 1299 363 346 577 770 660 1306
            28 185 30 495 4 665 -62 412 -212 744 -450 996 -215 229 -676 516 -1001 623
            -285 93 -587 125 -975 102 -107 -6 -514 -41 -905 -76 -1308 -119 -1683 -138
            -1775 -90 -58 30 -64 127 -15 224 21 43 35 56 84 80 168 85 462 119 1311 151
            478 18 713 35 988 71 724 93 1306 332 1782 731 393 330 619 683 710 1113 27
            129 38 402 21 542 -56 451 -267 891 -577 1198 -102 102 -193 168 -339 245
            -547 290 -831 580 -1095 1115 -147 298 -265 462 -454 627 -357 313 -820 481
            -1309 477 -84 -1 -165 -4 -182 -6z m1049 -1743 c97 -101 175 -189 174 -195 -2
            -6 -159 -161 -351 -345 l-347 -334 58 -61 c58 -60 521 -545 572 -598 l26 -28
            355 341 354 341 182 -188 c101 -103 183 -190 183 -193 0 -8 -1782 -1715 -1791
            -1715 -10 0 -359 364 -359 375 0 5 162 163 360 352 198 188 359 346 358 349
            -4 9 -649 679 -654 679 -3 0 -168 -156 -367 -347 l-362 -346 -182 189 c-101
            104 -182 192 -180 195 4 12 1782 1717 1788 1716 4 -1 86 -85 183 -187z m-6032
            -955 c497 -460 903 -841 903 -846 0 -6 -78 -96 -174 -199 l-174 -189 -36 31
            c-20 18 -185 171 -368 341 -182 169 -335 308 -338 308 -4 0 -150 -155 -326
            -344 l-319 -345 73 -69 c39 -39 204 -192 365 -342 160 -150 292 -276 292 -280
            0 -16 -343 -382 -355 -379 -14 4 -1815 1670 -1815 1679 0 4 79 94 177 199
            l176 191 31 -29 c478 -444 690 -634 702 -626 21 15 629 676 629 684 0 5 -590
            555 -714 666 -5 4 350 384 360 384 4 0 414 -376 911 -835z m6611 -5707 c512
            -431 939 -790 949 -798 17 -14 7 -28 -153 -218 l-171 -204 -21 20 c-12 10
            -175 146 -362 302 -187 156 -347 289 -356 297 -14 11 -37 -12 -190 -194 -96
            -115 -233 -278 -305 -364 l-132 -156 375 -313 c240 -201 372 -318 369 -327 -7
            -19 -319 -391 -329 -392 -14 -2 -1892 1581 -1892 1595 0 7 74 101 164 209
            l163 195 52 -43 c158 -134 694 -584 707 -594 13 -11 40 17 186 190 93 111 231
            274 305 363 l135 160 -384 324 c-211 178 -382 327 -381 332 4 12 328 398 334
            398 3 0 424 -352 937 -782z m-7087 506 c93 -103 170 -192 172 -198 2 -9 -574
            -542 -709 -656 l-30 -25 321 -353 321 -352 217 198 c119 108 288 261 374 340
            l157 142 175 -192 c97 -105 176 -195 176 -199 0 -9 -1819 -1669 -1830 -1669
            -13 0 -345 369 -345 384 0 6 159 157 353 335 193 177 352 326 352 330 0 5
            -142 164 -316 355 l-316 346 -77 -69 c-42 -38 -204 -187 -361 -330 -157 -144
            -288 -260 -291 -258 -15 6 -350 380 -347 387 4 11 1821 1670 1829 1670 3 0 81
            -84 175 -186z"/>
    </g>
</svg>