<?xml version="1.0" standalone="no"?>
<svg xmlns="http://www.w3.org/2000/svg" viewBox="0 0 287.67499 216.05" version="1.1" id="svg2"><defs id="defs6"/>
    <g transform="matrix(1.25,0,0,-1.25,0,216.05)" id="g10">
        <g transform="scale(0.1,0.1)" id="g12"><path id="path14" style="fill:white;fill-rule:nonzero;stroke:none" d="m 533.645,1007.17 -12.5,-65.381 124.589,53.43 c -7.957,16.741 -14.343,34.061 -18.972,51.841 l -93.117,-39.89"/><path id="path16" style="fill:white;fill-rule:nonzero;stroke:none" d="m 533.645,1007.17 0,0"/><path id="path18" style="fill:white;fill-rule:nonzero;stroke:none" d="m 1558.47,745.461 -102.43,98.359 c 40.27,27.559 74.35,59.895 100.59,95.891 0.36,0.477 0.69,1.043 1.04,1.543 l 249.14,258.676 7.4,7.97 32.52,33.85 -304.25,292.09 -68.38,-71.18 -75.43,-78.59 -51.37,-53.53 -96.89,-100.89 0.06,-0.06 -8.39,-8.73 28.26,-27.06 131.1,-127.83 c -28.7,-27.15 -65.15,-50.42 -106.31,-67.548 -0.01,-0.012 -0.05,-0.012 -0.07,-0.02 l -86.53,83.048 -84.93,81.59 -57.8,54.78 137.34,143.05 68.97,71.87 74.98,78.05 187.31,195.1 493.12,-471.97 -469.05,-488.459 z m 63.56,414.639 c 2.23,14.59 3.49,29.04 3.49,42.91 0,81.77 -37.03,167.97 -99.24,232.26 l 16.2,16.88 252.03,-242 -208.68,-217.295 c 22.16,51.525 36.49,115.085 36.49,160.675 0,1.93 -0.11,4.17 -0.29,6.57 z m -209.51,-83.06 -118.97,115.86 100.76,104.96 c 35.85,-29.89 62.37,-65.59 76.39,-104.83 -0.87,-6.4 -1.96,-12.85 -3.54,-19.31 -8.48,-34.74 -26.92,-67.22 -54.64,-96.68 z m -19.77,-173.208 c -18.38,-9.348 -37.87,-17.824 -57.97,-25.246 -69.03,-25.488 -143.47,-38.418 -221.23,-38.418 -110.23,0 -214.585,26.211 -301.734,75.812 -48.175,27.43 -88.644,60.672 -120.265,98.83 -12.098,14.63 -22.781,29.84 -31.778,45.25 -18.582,31.68 -30.828,65.07 -36.414,99.21 -2.531,15.23 -3.75,29.55 -3.75,43.74 0,52.8 15.145,103.63 45.039,151.25 l 80.176,-81.15 c -5.449,-18.62 -8.203,-37.54 -8.203,-56.35 0,-15.63 1.953,-31.55 5.781,-47.3 5.457,-22.27 14.864,-44.06 27.911,-64.79 10.332,-16.4 22.91,-32.05 37.382,-46.47 39.785,-39.74 93.77,-71.009 156.133,-90.442 47.302,-14.746 97.692,-22.227 149.722,-22.227 42.01,0 83.53,4.981 123.41,14.871 22.71,5.664 44.62,12.871 65.1,21.368 47.19,19.65 88.72,47.01 120.13,79.17 31.89,32.72 52.9,69.23 62.48,108.52 3.87,15.86 5.84,31.77 5.84,47.3 0,44.66 -16.83,95.2 -44.25,133.85 l 68.22,71.05 c 58.39,-60.86 92.99,-141.93 92.99,-218.65 0,-14.09 -1.25,-28.82 -3.71,-43.74 -10.54,-64.34 -44.68,-125.63 -98.75,-177.235 -31.68,-30.273 -69.45,-56.582 -112.26,-78.203 z M 605.555,1156.34 c 0.097,-0.57 0.265,-1.12 0.363,-1.72 -0.207,-2.27 -0.371,-4.4 -0.371,-6.1 0,-24.09 14.773,-81.29 20.742,-104.11 0,-0.03 0.02,-0.05 0.02,-0.08 l -78.332,-33.49 74.699,389.32 30.683,-30.34 c -34.269,-52.23 -51.769,-108.3 -51.769,-166.81 0,-15.17 1.301,-30.44 3.965,-46.67 z m 182.824,-46 c -0.879,1.33 -1.973,2.59 -2.813,3.94 -12.031,19.08 -20.644,39.11 -25.644,59.44 -0.527,2.15 -0.742,4.3 -1.172,6.45 5.801,20.49 15.008,40.09 27.129,58.54 l 95.234,-94.21 -92.734,-34.16 z m 361.341,-54.1 81.84,-78.58 c -38.14,-9.336 -77.83,-14.101 -118.01,-14.101 -50.21,0 -98.79,7.207 -144.37,21.414 -6.086,1.894 -12.012,3.984 -17.922,6.105 l 181.372,81.572 17.09,-16.41 z M 350.18,731.957 525.996,1711.38 776.98,1473.52 l 78.625,-74.5 60.086,-56.96 142.639,-135.99 0,-62.03 60.63,-58.25 -189.409,-86.227 c -42.793,18.127 -80.039,42.377 -109.113,71.407 -0.665,0.66 -1.2,1.4 -1.856,2.05 l 145.344,67.89 -341.817,318.3 -6.738,6.78 -8.164,-44.08 -80.723,-420.73 -12.5,-65.387 21.407,9.172 0.086,0.515 109.796,47.051 c 17.168,-36.179 41.766,-69.812 72.422,-99.871 L 350.18,731.957 Z M 1202.3,1381.7 1055.64,1228.94 926.805,1351.05 c 55.343,24.05 120.325,38 189.915,38 29.49,0 58.12,-2.62 85.58,-7.35 z m -105.62,199.02 c 79.55,0 185.92,-20.42 253.45,-45.05 l -3.04,-3.17 -74.98,-78.05 -0.25,-0.27 c -47.14,15.77 -99.67,24.64 -155.14,24.64 -96.82,0 -184.747,-26.9 -250.118,-70.69 l -0.977,0.92 -78.633,74.51 -7.012,6.65 c 85.958,51.89 197.461,90.51 316.7,90.51 z m 942.1,-335.26 0,0.2 -0.1,-0.12 -504.28,482.05 -169.63,-176.68 c -70.08,27.11 -180.28,48.91 -264.05,48.91 -121.853,0 -247.478,-41.61 -335.212,-95.92 l -236.524,224.15 0.039,0.25 -0.273,-0.02 -0.156,0.15 -0.039,-0.18 -84.586,-8.86 -182.598,-999.839 84.996,-8.852 0.047,0.289 385.305,168.535 c 0.625,-0.546 1.199,-1.121 1.824,-1.687 91.672,-80.871 229.277,-132.375 383.177,-132.375 106.79,0 205.65,24.855 286.85,67.051 l 154.9,-148.75 480.31,500.218 0,81.36 0.05,0.06 -0.05,0.06"/><path id="path20" style="fill:white;fill-rule:nonzero;stroke:none" d="m 133.559,588.039 396.91,0 -37.375,-152.84 -190.239,0 -18.808,-80.308 198.453,0 -34.551,-141.61 -195.883,0 L 205.039,12.0898 0,12.0898 133.559,588.039"/><path id="path22" style="fill:white;fill-rule:nonzero;stroke:none" d="m 584.43,588.039 205.039,0 -133.563,-575.9492 -205.039,0 133.563,575.9492"/><path id="path24" style="fill:white;fill-rule:nonzero;stroke:none" d="m 994.535,313.441 c 65.845,0 111.925,38.868 111.925,94.118 0,29.371 -21.63,44.043 -63.96,44.043 -12.22,0 -18.8,-0.864 -31.97,-3.454 L 979.488,315.18 c 6.586,-0.871 7.528,-1.739 15.047,-1.739 z m -151.426,271.141 13.168,1.727 c 65.836,7.773 147.673,12.953 192.813,12.953 75.24,0 133.56,-8.633 177.77,-26.762 56.43,-23.32 90.29,-74.27 90.29,-135.57 0,-52.668 -17.87,-102.758 -51.74,-141.621 -29.16,-33.668 -55.48,-50.071 -110.04,-66.481 l -13.17,-4.316 c 5.65,-4.321 7.53,-6.051 10.35,-8.641 15.99,-18.133 63.96,-111.391 104.41,-203.7812 l -225.74,0 C 1002.06,94.1211 993.598,115.711 955.035,208.969 l -45.148,-196.8792 -199.395,0 132.617,572.4922"/><path id="path26" style="fill:white;fill-rule:nonzero;stroke:none" d="m 1803.9,588.039 497.5,0 -34.76,-166.73 -147.65,0 -97.82,-409.2192 -205.04,0 97.82,409.2192 -160.05,0 50,166.73"/><path id="path28" style="fill:white;fill-rule:nonzero;stroke:none" d="m 2115.78,66.6484 c 4.44,0 6.96,2.1329 6.96,6.1914 0,3.8711 -2.33,6 -6.77,6 -0.97,0 -1.16,0 -2.13,-0.1992 l 0,-11.789 c 0.77,-0.2032 1.16,-0.2032 1.94,-0.2032 z m -17.98,23.9805 c 2.52,0.1914 2.9,0.3828 7.93,0.7695 5.02,0.3907 7.15,0.5821 9.27,0.5821 16.44,0 24.55,-6.3789 24.55,-18.5586 0,-7.3399 -3.08,-11.793 -9.66,-14.3125 l -0.77,-0.1875 c 0.57,-0.3906 0.77,-0.5821 0.96,-0.961 1.74,-1.5507 7.54,-10.25 12.38,-18.1796 l -18.75,0 c -3.87,7.1601 -5.03,9.0898 -9.87,17.1992 l 0,-17.1992 -16.04,0 0,50.8476 z m 19.33,-69.4101 c 24.36,0 43.89,19.5312 43.89,43.6914 0,24.3593 -19.53,43.8908 -43.89,43.8908 -24.17,0 -43.69,-19.5315 -43.69,-43.6916 0,-24.5508 19.34,-43.8906 43.69,-43.8906 z m 0,93.7692 c 27.64,0 50.07,-22.238 50.07,-49.8786 0,-27.8399 -22.23,-50.0781 -50.07,-50.0781 -28.03,0 -49.88,21.8593 -49.88,50.0781 0,27.832 22.04,49.8786 49.88,49.8786"/><path id="path30" style="fill:white;fill-rule:nonzero;stroke:none" d="M 1277.13,26.7305 C 1334.78,9.60156 1397.82,0 1456.71,0 c 79.95,0 141.09,18.1289 193.75,56.1289 58.31,41.4492 95.94,105.3401 95.94,163.1911 0,38.871 -16.92,74.27 -47.02,99.321 -23.52,18.98 -47.97,33.668 -97.82,56.98 l -40.44,18.988 c -13.18,6.922 -19.76,13.821 -19.76,21.59 0,20.731 26.34,36.262 62.08,36.262 26.74,0 58.61,-7.77 119.5,-27.68 l 42.03,155.91 c -45.54,12.368 -89.92,18.571 -134.26,18.571 -167.41,0 -296.27,-91.524 -296.27,-209.821 0,-62.171 41.38,-106.211 144.84,-154.57 48.91,-22.449 57.38,-28.5 57.38,-44.039 0,-23.312 -25.4,-38 -66.78,-38 -36.68,0 -83.7,11.227 -147.67,34.547 l -0.08,-0.02 -45,-160.6285"/></g>
    </g>
</svg>