<svg id="Logo" xmlns="http://www.w3.org/2000/svg" viewBox="0 0 584.43 565.45">
    <defs>
        <style>
            .cls-1 {
                fill: #424242;
            }
            .cls-1,
            .cls-2,
            .cls-4,
            .cls-5,
            .cls-7 {
                fill-rule: evenodd;
            }
            .cls-2,
            .cls-3 {
                fill: #f44336;
            }
            .cls-4 {
                fill: white;
            }
            .cls-5,
            .cls-6 {
                fill: #2196f3;
            }
            .cls-7 {
                fill: #00c853;
            }
        </style>
    </defs>
    <path id="Gear" class="cls-1" d="M129.72,309.95l-18.23,4.39L125,373.75l17.94-4.32a169.36,169.36,0,0,0,32.29,50.07l-11.21,16,48,35.69,11.23-16-0.06,0a158.77,158.77,0,0,0,56.73,15.64l2,19.52,58.85-6.5-2-19.12a161.19,161.19,0,0,0,52.88-27.33l13.64,12.88,40-45-13.57-12.82A170.66,170.66,0,0,0,453.74,335L472,335.36l1.05-61L454.4,274a170.83,170.83,0,0,0-20.81-57.92l13.85-12.26-38.56-46.29-14.36,12.72a161.58,161.58,0,0,0-52.66-28.66l2.4-19.13-58.69-7.83-2.46,19.62,0.35,0a158.74,158.74,0,0,0-58.37,15L214.8,133.94l-48.68,34.7,10.51,15.67a170.8,170.8,0,0,0-47.06,118.27C129.56,305,129.62,307.5,129.72,309.95ZM293.22,182.2c64.54,0,116.83,54,116.79,120.53S357.64,423.17,293.1,423.14s-116.83-54-116.79-120.53S228.69,182.16,293.22,182.2Z" transform="translate(0)"/>
    <g id="Red_Things" data-name="Red Things"><polygon class="cls-2" points="183.29 401.35 212.36 426.67 205.28 435.32 176.21 409.99 183.29 401.35"/><polygon class="cls-2" points="156.59 376.14 142.61 341.28 152.64 336.67 157.95 349.1 166.86 344.82 170.78 354.59 161.87 358.86 166.62 371.53 156.59 376.14"/><polygon class="cls-2" points="236.39 447.51 241.13 431.67 267.78 440.14 265.3 448.45 245.97 442.3 243.62 449.81 236.39 447.51"/><polygon class="cls-2" points="292.63 449.49 316.63 446.71 317.44 454.21 293.44 456.98 292.63 449.49"/><rect class="cls-3" x="156.9" y="290.54" width="12.44" height="12.83"/><polygon class="cls-2" points="155.2 245.53 161.4 247.74 155.72 264.62 149.52 262.4 155.2 245.53"/></g>
    <g id="White_Things" data-name="White Things"><polygon class="cls-4" points="418.74 216.03 437.71 250.04 428.19 255.68 409.22 221.67 418.74 216.03"/><polygon class="cls-4" points="207.77 173.4 241.22 158.09 245.95 168.31 234.03 174.11 238.4 183.18 229.04 187.46 224.66 178.39 212.5 183.62 207.77 173.4"/><polygon class="cls-4" points="366.86 198.56 377.38 186.02 398.47 204.81 392.96 211.39 377.66 197.75 372.58 203.66 366.86 198.56"/><polygon class="cls-4" points="183.24 221.93 195.11 207.35 200.09 211.66 188.22 226.23 183.24 221.93"/><polygon class="cls-4" points="287.35 149.72 296.89 150.24 296.23 163.05 286.69 162.52 287.35 149.72"/><polygon class="cls-4" points="352.87 161.81 350.07 170.17 328.67 162.53 331.47 154.18 352.87 161.81"/></g>
    <g id="Blue_Things" data-name="Blue Things"><polygon class="cls-5" points="434.08 312.57 433.3 340.33 425.21 340.32 425.27 330.32 418.04 330.43 418.26 322.65 425.49 322.54 426 312.55 434.08 312.57"/><polygon class="cls-5" points="385.48 390.71 395.54 403.65 373.79 421.63 368.51 414.86 384.29 401.81 379.58 395.59 385.48 390.71"/><polygon class="cls-5" points="414.02 380.75 422.78 364 428.5 367.18 419.74 383.93 414.02 380.75"/><polygon class="cls-5" points="355.98 441.27 358.16 447.65 341.82 453.59 339.64 447.21 355.98 441.27"/><rect class="cls-6" x="435.58" y="282.39" width="9.88" height="9.05"/></g>
    <g id="Biohazard"><path class="cls-7" d="M297.73,264.88v9.8c16.9,2.73,29.89,17.88,29.88,36a37.16,37.16,0,0,1-2.37,13.08l8.38,5c38.19-62.06,117.45-82.54,179.76-45.41,48,28.63,72.33,83.36,65.75,136.75,19.11-80.22-14.19-167-87.07-210.46q-7.64-4.55-15.51-8.27,0.83-9,.84-18.24c0-86.77-56.15-160-133.08-183.11,48.12,20.89,81.9,70,81.87,127.16C426.14,201.5,369.1,262,297.73,264.88ZM351,289.42a13.18,13.18,0,1,1,12.79-13.17A13,13,0,0,1,351,289.42Zm44.18-34.09a8,8,0,1,1-7.95-8.2A8.08,8.08,0,0,1,395.17,255.33Z" transform="translate(0)"/><path class="cls-7" d="M5.26,419.69C-1.26,366.28,23.08,311.58,71.15,283c62.41-37.11,141.76-16.44,179.85,45.85l8.25-4.9a37.1,37.1,0,0,1-2.41-13.27c0-18.17,13-33.3,29.92-36v-9.81c-71.23-3.07-128.07-63.59-128-137.78,0-57.21,33.86-106.25,82-127.08C163.8,23,107.52,96.19,107.47,183q0,9.09.8,18-8,3.76-15.74,8.37C19.63,252.66-13.77,339.44,5.26,419.69ZM236.43,263a13.18,13.18,0,1,1-12.79,13.17A13,13,0,0,1,236.43,263Zm-36.91-16a8.2,8.2,0,1,1-8,8.2A8.08,8.08,0,0,1,199.53,247Z" transform="translate(0)"/><path class="cls-7" d="M277.39,539.68q7.66-4.55,14.7-9.71,7.16,5.25,14.91,9.88c72.86,43.42,162.46,29.84,220.35-27.27-41.6,32.52-99.72,38.14-147.75,9.51-62.39-37.18-84.71-118.35-51.42-183.51l-8.38-5a34.65,34.65,0,0,1-55,.12l-8.32,5c33,65.14,10.62,146.14-51.73,183.2-48.07,28.58-106.18,22.88-147.76-9.67C114.9,569.34,204.48,583,277.39,539.68Zm14.86-116.61a8.2,8.2,0,1,1,8-8.2A8.08,8.08,0,0,1,292.26,423.07Zm0-59.45A13.18,13.18,0,1,1,279.5,376.8,13,13,0,0,1,292.29,363.63Z" transform="translate(0)"/></g>
</svg>
